HIERARCHY
ROOT Hips
{
	OFFSET 0.000000 88.474243 0.000000
	CHANNELS 6 Xposition Yposition Zposition Zrotation Yrotation Xrotation 
	JOINT Hips_Spine
	{
		OFFSET 0.000000 0.000000 0.000000
		CHANNELS 3 Zrotation Yrotation Xrotation
		JOINT Spine
		{
			OFFSET 0.005100 8.711998 -0.691000
			CHANNELS 3 Zrotation Yrotation Xrotation
			JOINT Spine1
			{
				OFFSET -0.009200 8.660301 -1.275000
				CHANNELS 3 Zrotation Yrotation Xrotation
				JOINT Spine2
				{
					OFFSET 0.006300 9.852501 -1.857000
					CHANNELS 3 Zrotation Yrotation Xrotation
					JOINT Spine2_Neck
					{
						OFFSET 0.000000 0.000000 0.000000
						CHANNELS 3 Zrotation Yrotation Xrotation
						JOINT Neck
						{
							OFFSET 0.016300 11.420799 -0.263300
							CHANNELS 3 Zrotation Yrotation Xrotation
							End Site #name: Head
							{
								OFFSET -0.019200 9.262405 2.362500
							}
						}
					}
					JOINT Spine2_LeftShoulder
					{
						OFFSET 0.000000 0.000000 0.000000
						CHANNELS 3 Zrotation Yrotation Xrotation
						JOINT LeftShoulder
						{
							OFFSET 5.616900 6.732201 -0.345700
							CHANNELS 3 Zrotation Yrotation Xrotation
							JOINT LeftArm
							{
								OFFSET 10.664888 -0.183372 -2.440700
								CHANNELS 3 Zrotation Yrotation Xrotation
								JOINT LeftForeArm
								{
									OFFSET 27.459126 0.000000 0.000000
									CHANNELS 3 Zrotation Yrotation Xrotation
									End Site #name: LeftHand
									{
										OFFSET 21.306858 0.000000 0.000000
									}
								}
							}
						}
					}
					JOINT Spine2_RightShoulder
					{
						OFFSET 0.000000 0.000000 0.000000
						CHANNELS 3 Zrotation Yrotation Xrotation
						JOINT RightShoulder
						{
							OFFSET -5.580300 6.737503 -0.344400
							CHANNELS 3 Zrotation Yrotation Xrotation
							JOINT RightArm
							{
								OFFSET -10.679335 -0.188484 -2.383900
								CHANNELS 3 Zrotation Yrotation Xrotation
								JOINT RightForeArm
								{
									OFFSET -27.503529 0.000000 0.000000
									CHANNELS 3 Zrotation Yrotation Xrotation
									End Site #name: RightHand
									{
										OFFSET -21.306808 0.000000 0.000000
									}
								}
							}
						}
					}
				}
			}
		}
	}
	JOINT Hips_LeftUpLeg
	{
		OFFSET 0.000000 0.000000 0.000000
		CHANNELS 3 Zrotation Yrotation Xrotation
		JOINT LeftUpLeg
		{
			OFFSET 6.857700 -6.739601 0.312100
			CHANNELS 3 Zrotation Yrotation Xrotation
			JOINT LeftLeg
			{
				OFFSET -0.367590 -34.731552 -4.572400
				CHANNELS 3 Zrotation Yrotation Xrotation
				End Site #name: LeftFoot
				{
					OFFSET 0.367590 -34.656704 -6.067400
				}
			}
		}
	}
	JOINT Hips_RightUpLeg
	{
		OFFSET 0.000000 0.000000 0.000000
		CHANNELS 3 Zrotation Yrotation Xrotation
		JOINT RightUpLeg
		{
			OFFSET -6.876100 -6.733299 0.301000
			CHANNELS 3 Zrotation Yrotation Xrotation
			JOINT RightLeg
			{
				OFFSET 0.347353 -34.795158 -4.515900
				CHANNELS 3 Zrotation Yrotation Xrotation
				End Site #name: RightFoot
				{
					OFFSET -0.347353 -34.589367 -6.070300
				}
			}
		}
	}
}
MOTION
Frames: 7
Frame Time: 0.041667
0.474700 0.773435 -1.181224 2.101457 -7.661582 -7.051935 -0.000000 0.000000 -0.000000 -2.724218 -0.280021 -3.258833 2.148170 -1.951883 -6.200609 0.000000 0.000000 0.000000 2.599773 -1.419094 -6.081922 3.647667 -4.277054 -4.747599 1.128034 -1.714450 -6.869609 -18.153465 -0.278448 9.643952 -54.010648 12.972647 -3.901880 -0.587501 -21.169662 8.000603 1.600452 -1.771491 -3.360886 3.473836 5.840305 1.447363 67.327107 -1.364491 -8.268621 0.353100 46.947098 -0.713679 -0.000000 -0.000000 -0.000000 -9.934546 26.078155 -1.225900 -1.907353 1.384250 18.344195 0.000000 0.000000 0.000000 -7.060594 7.404239 -19.415948 5.092273 -3.910112 15.755619 
0.247925 0.777573 -1.258874 1.836238 -8.349498 -7.138515 -0.000000 0.000000 -0.000000 -1.772578 -0.330156 -3.975072 2.330954 -1.972876 -6.125130 0.000000 0.000000 0.000000 2.765060 -1.372225 -6.043165 3.591386 -4.324481 -4.493955 1.318109 -1.666139 -6.754086 -17.596270 -0.353542 9.759644 -54.996172 13.923609 -4.585783 -0.603970 -21.789224 7.857736 1.768852 -1.733530 -3.366085 3.564099 5.973642 1.487734 67.145234 -1.440166 -8.062277 0.365341 46.920990 -0.710098 -0.000000 -0.000000 -0.000000 -9.274968 26.269221 -0.912493 -2.033920 1.138786 18.628824 0.000000 0.000000 0.000000 -6.291326 7.767372 -19.667338 5.236917 -4.202572 15.785894 
0.042005 0.778543 -1.336133 1.522571 -8.786970 -7.159539 -0.000000 0.000000 -0.000000 -0.821776 -0.370229 -4.699965 2.522992 -1.982754 -6.041508 0.000000 0.000000 0.000000 2.938042 -1.321662 -5.994633 3.569784 -4.400724 -4.184665 1.520302 -1.615559 -6.624266 -17.034967 -0.447846 9.839089 -55.954593 14.817266 -5.241321 -0.623185 -22.404673 7.717994 1.951766 -1.694600 -3.366062 3.676529 6.089882 1.513415 66.978558 -1.470600 -7.842906 0.372951 46.928931 -0.710274 -0.000000 -0.000000 -0.000000 -8.651882 26.426314 -0.429387 -2.178678 0.871174 18.526093 0.000000 0.000000 0.000000 -5.498634 8.125020 -19.861169 5.443503 -4.450981 15.798451 
-0.132970 0.777408 -1.411425 1.226750 -9.441486 -7.098045 -0.000000 0.000000 -0.000000 0.108919 -0.374038 -5.323344 2.715346 -1.985684 -5.932412 0.000000 0.000000 0.000000 3.110306 -1.268267 -5.924955 3.546850 -4.490026 -3.820801 1.723618 -1.559505 -6.471313 -16.452350 -0.582474 9.892122 -56.821535 15.494215 -5.940232 -0.654973 -22.993609 7.571842 2.134419 -1.653755 -3.351918 3.837347 6.217493 1.537757 66.755921 -1.485407 -7.650228 0.379371 47.043406 -0.711735 -0.000000 -0.000000 -0.000000 -8.012820 26.646590 0.174657 -2.334247 0.523955 18.252766 0.000000 -0.000000 0.000000 -4.702899 8.544052 -20.105421 5.637961 -4.685153 15.823192 
-0.268293 0.775929 -1.484684 1.005805 -10.357436 -7.036391 -0.000000 -0.000000 -0.000000 0.772248 -0.407691 -6.000291 2.907676 -1.985828 -5.799650 0.000000 0.000000 0.000000 3.247995 -1.206506 -5.825073 3.486454 -4.602689 -3.355740 1.922823 -1.497639 -6.289305 -15.860819 -0.734204 9.927635 -57.524066 15.894265 -6.652161 -0.690904 -23.583380 7.419564 2.314058 -1.606208 -3.323633 4.070780 6.374888 1.570195 66.472001 -1.646152 -7.592234 0.389888 47.369043 -0.712795 -0.000000 -0.000000 -0.000000 -7.390078 26.853502 0.818623 -2.468268 0.244215 17.939046 0.000000 -0.000000 0.000000 -3.973017 9.017416 -20.346557 5.815832 -4.953102 15.893627 
-0.357593 0.775184 -1.557820 0.874563 -11.736782 -6.987221 -0.000000 -0.000000 -0.000000 1.379615 -0.433152 -6.594182 3.087095 -1.984338 -5.650121 0.000000 0.000000 0.000000 3.368704 -1.140987 -5.696550 3.375433 -4.772866 -2.738689 2.116308 -1.439345 -6.093025 -15.282613 -0.889461 9.935441 -58.128532 16.163328 -7.251214 -0.733924 -24.145322 7.266618 2.475595 -1.560586 -3.275612 4.329999 6.562397 1.610685 66.108540 -1.876437 -7.566630 0.407972 47.927212 -0.706835 -0.000000 -0.000000 -0.000000 -6.821176 26.960771 1.481694 -2.600626 0.053040 17.588083 0.000000 -0.000000 0.000000 -3.362055 9.535374 -20.609086 5.978725 -5.159527 16.074548 
-0.394877 0.775464 -1.632401 0.855836 -13.568412 -6.949230 -0.000000 -0.000000 0.000000 1.814126 -0.512892 -6.909419 3.248417 -1.991007 -5.493842 0.000000 0.000000 0.000000 3.473949 -1.079886 -5.562419 3.210379 -4.876420 -2.032755 2.294572 -1.389390 -5.895451 -14.739409 -1.044967 9.925248 -58.681439 16.340318 -7.755604 -0.777802 -24.657149 7.124545 2.619432 -1.516060 -3.219327 4.641701 6.760375 1.655203 65.745776 -2.151137 -7.571321 0.432398 48.523436 -0.692948 -0.000000 -0.000000 -0.000000 -6.360539 27.035067 2.152953 -2.748793 -0.064142 17.181043 0.000000 -0.000000 0.000000 -2.885882 10.083262 -20.947123 6.129855 -5.305767 16.424496 
